<?xml version="1.0" standalone="yes"?>
<svg xmlns="http://www.w3.org/2000/svg" width="400" height="400">
<path style="fill:#024e4600; stroke:none;" d="M0 0L0 400L400 400L400 0L0 0z"/>
<path style="fill:#fff; stroke:none;" d="M119 70C132.841 82.4879 139.514 98.5215 147.753 115C151.924 123.343 155.731 133.854 164.001 139.005C170.291 142.924 177.925 142 185 142L225 142C219.457 137.337 214.195 134.389 212 127C209.264 130.515 207.658 134.594 203.96 137.362C193.961 144.847 182.81 139.304 176.696 130C169.196 118.588 163.341 106.187 157.247 94C154.241 87.9877 151.669 80.1916 146.671 75.5293C139.147 68.5103 128.435 70 119 70M169 70C175.275 74.2466 180.699 77.2519 183 85C185.289 81.6181 186.898 77.9939 190.043 75.2245C196.668 69.3921 206.66 69.8514 212.816 76.108C221.62 85.0564 227.236 99.5564 232 111L211 111C213.84 119.558 227.422 112.081 233.61 116.028C239.292 119.653 240.771 129.852 245.329 134.906C253.87 144.377 267.543 142 279 142C275.34 139.75 271.335 138.802 268.04 135.811C258.094 126.783 252.14 110.869 246.248 99C241.998 90.4405 239.113 79.4774 230.985 73.6489C224.784 69.202 217.211 70 210 70L169 70M247 74C253.553 71.2275 258.291 73.7325 265 73.9568C270.487 74.1403 275.774 72.4719 281 71C277.002 69.4401 273.12 71.3869 269 71.8264C261.93 72.5805 251.529 66.8225 247 74M282 71C283.139 72.0155 283.612 72.3087 285 73C283.777 71.8048 283.58 71.6836 282 71z"/>
<path style="fill:#024e4600; stroke:none;" d="M181 73L183 77C184.434 75.6075 185.045 74.7672 186 73L181 73z"/>
<path style="fill:#fff; stroke:none;" d="M249 74C250.742 74.2853 252.214 74.1627 254 74C251.956 73.2256 251.155 73.4078 249 74M277 74C279.025 74.3208 280.933 74.125 283 74C280.677 73.0785 279.419 73.3127 277 74z"/>
<path style="fill:#110e0b; stroke:none;" d="M131 74C133.531 80.6769 138.191 86.646 141.514 93C146.356 102.261 150.433 111.878 155.576 121C160.72 130.125 164.694 137.075 176 138C173.457 131.291 168.731 125.327 165.309 119C160.7 110.48 156.579 101.664 152.247 93C147.291 83.0884 143.388 74.2913 131 74z"/>
<path style="fill:#fff; stroke:none;" d="M251 75C251.661 76.3964 251.964 76.8137 253 78C251.127 77.8336 249.804 77.5545 248 77C248.313 83.8024 255.087 82.2025 257 77L253 80C253.303 77.3176 253.207 76.5716 251 75M280 75L280 77L282 77L282 75L280 75M278 77C279.878 79.1397 281.316 78.7419 284 78L278 77M285 77C282.108 80.1824 280.028 80.2495 276 79C278.913 81.9717 286.284 83.105 285 77z"/>
<path style="fill:#110e0b; stroke:none;" d="M248 79L249 80L248 79M250 80C251.248 80.6848 251.548 80.7488 253 81C251.752 80.3152 251.452 80.2512 250 80z"/>
<path style="fill:#fff; stroke:none;" d="M269 82C271.052 82.8742 272.747 82.9528 275 83L275 85L257 85L258 90C258.683 88.4939 258.826 87.6852 259 86C259.562 87.8006 259.824 89.1218 260 91L262 91L262 86L264 94C265.098 91.3873 264.993 88.8355 265 86L267 86C267 89.8008 266.919 93.3432 268 97C269.44 93.5676 269 89.7002 269 86L271 86L271 101C272.876 96.5286 272 90.8167 272 86C273.693 91.7263 273 98.0572 273 104C275.191 98.7776 274 91.6322 274 86C276.031 92.8713 275 100.863 275 108C278.008 100.831 276 89.761 276 82L269 82M129 127C126.711 133.603 123.374 137.959 117 141C123.928 143.907 134.503 142 142 142C136.246 137.158 133.17 133.197 129 127z"/>
<path style="fill:#110e0b; stroke:none;" d="M129 135L126 139L132 139C131.064 137.051 130.608 136.45 129 135z"/>
<path style="fill:#fff; stroke:none;" d="M67 158L67 178C61.3859 171.574 55.9401 163.992 49 159L49 186L52 186L52 167C57.9556 172.96 63.1012 180.137 70 185C70 176.17 68.9462 166.626 71 158L67 158M73 158C73 164.733 71.1381 174.831 74.3179 180.956C77.2795 186.66 86.422 187.93 89.821 181.891C93.4309 175.478 90.2893 165.186 92 158L88 158C88.0171 164.189 90.6179 172.07 88.2577 177.981C86.171 183.206 79.9959 184.082 77.179 178.941C74.2117 173.526 76 164.023 76 158L73 158M94 158C94 167.138 95.1251 177.074 93 186L110 186L110 183L97 183L97 173L106 173L106 171L97 171L97 161L108 161L108 158L94 158M112 159C115.737 167.93 121.266 176.032 125 185L127 185C130.714 176.079 135.504 167.546 140 159L136 158C133.195 164.737 129.025 170.97 127 178L125 178C122.975 170.97 118.805 164.737 116 158L112 159M148 158C142.996 166.486 138.585 175.286 134 184L138 185L148 165C151.726 171.384 155.159 178.175 158 185L162 184C158.552 175.719 154.397 164.33 148 158M179 158C175.267 166.965 169.735 175.028 166 184C167.479 184.986 167.203 185 169 185C172.751 178.64 176.945 172.133 179 165L181 165C182.968 171.83 186.656 178.728 190 185L194 184C189.504 175.454 184.714 166.921 181 158L179 158M217 183C216.528 181.584 216.186 181.186 215 180C212.808 181.102 210.516 182.534 207.998 182.667C193.713 183.423 194.702 159.768 208.984 161.268C211.305 161.512 213.112 162.755 215 164C216.186 162.814 216.528 162.416 217 161C214.421 159.556 212.011 158.333 209 158.12C190.049 156.777 189.241 186.039 208 185.917C211.399 185.895 214.105 184.621 217 183M220 158C222.007 166.432 222.007 177.568 220 186L224 186L224 175C228.098 178.018 230.854 182.037 234 186C235.416 185.528 235.814 185.186 237 184C235.256 181.667 232.34 178.982 231.891 175.999C231.41 172.796 234.365 170.132 234.728 167C235.772 157.978 226.249 158.001 220 158M247.001 158.558C229.407 163.167 237.433 190.836 255 185.347C272.098 180.005 264.116 154.074 247.001 158.558M267 158L267 186L270 186L270 175C276.84 174.687 287.781 168.078 279.682 160.514C276.39 157.439 271.143 158.003 267 158M295.001 158.558C277.346 163.183 285.695 190.754 303 185.347C320.098 180.005 312.116 154.074 295.001 158.558M314 158C316.007 166.432 316.007 177.568 314 186L329 186L329 183L318 183L318 158L314 158M332 158L332 186L335 186L335 158L332 158M338 182C343.483 187.063 354.011 185.567 351.551 176.044C350.224 170.907 344.313 171.743 341.851 167.773C338.349 162.127 345.59 161.662 349 163C349.986 161.521 350 161.797 350 160C344.181 157.204 334.631 159.436 337.758 167.981C339.458 172.628 344.801 172.435 347.149 176.227C348.899 179.053 347.072 181.854 343.96 182.012C341.911 182.116 340.075 181.751 338 182z"/>
<path style="fill:#110e0b; stroke:none;" d="M224 160L224 172C233.827 170.902 233.451 161.507 224 160M270 160L270 172C274.98 171.741 284.449 167.119 276.853 161.938C274.847 160.57 272.328 160.322 270 160M247.004 161.742C233.788 166.84 241.78 187.478 254.985 181.991C267.822 176.656 259.969 156.742 247.004 161.742M295.004 161.742C281.788 166.84 289.78 187.478 302.985 181.991C315.86 176.641 308.069 156.703 295.004 161.742z"/>
<path style="fill:#fff; stroke:none;" d="M180 190L179 192L181 192C181 190.147 181.3 190.65 180 190M82 204C80.0725 199.321 80.2444 196.401 85 194C77.9776 192.154 76.836 200.644 82 204M92 193L92 204C92.779 202.231 92.9124 200.964 93 199C94.9444 201.084 96.4995 202.679 99 204C97.4821 200.908 96.3088 199.09 93 198L94 194C95.5982 195.481 96.1083 196.061 97 198C98.2799 194.094 95.4507 193.268 92 193M105 204C101.435 198.557 103.094 194.236 110 195C102.637 190.063 96.3097 200.675 105 204M162 193C163.693 194.062 165.04 194.52 167 195C165.249 193.745 164.143 193.386 162 193M178 193C182.115 196.53 183.113 198.87 181 204C187.09 200.042 184.36 194.299 178 193M195 193L195 201C192.484 198.151 190.43 195.67 187 194L187 204C187.985 201.668 187.981 199.543 188 197C190.564 199.545 193.048 201.924 196 204C196 200.3 196.44 196.432 195 193M235 193L235 204C235.779 202.231 235.912 200.964 236 199C237.941 200.971 239.61 202.645 242 204C241.045 202.233 240.434 201.393 239 200C242.003 195.391 240.185 193.396 235 193M252 193L252 201C249.448 198.363 247.237 195.726 244 194L244 204C244.985 201.668 244.981 199.543 245 197C247.564 199.545 250.048 201.924 253 204C253 200.3 253.44 196.432 252 193M259 193C258.772 195.47 259.075 196.66 260 199L257 197L256 201C259.612 200.668 261.023 202.254 264 204C262.701 200.159 261.451 196.242 259 193M274 204C272.361 203.227 269.988 202.817 268.757 201.4C265.136 197.233 270.55 194.708 274 195C269.135 191.481 261.997 197.441 266.743 202.258C268.6 204.142 271.582 203.941 274 204M285 204C283.072 199.321 283.244 196.401 288 194C281.115 192.19 279.571 200.828 285 204M86 194C87.3617 198.091 87.0011 200.202 85 204C89.6775 201.543 90.9815 196.921 86 194M115 194L114 198C115.195 197.402 114.977 197.534 116 196L117 199C113.542 199.591 112.488 200.865 111 204C115.708 201.052 116.241 201.215 121 204L117 194L115 194M122 194C122 197.509 121.218 201.569 124 204C123.428 201.623 123.11 199.442 123 197L131 204L131 194C130.126 196.052 130.047 197.747 130 200C127.447 197.52 125.224 195.496 122 194M134 194L134 204L136 204L136 194L134 194M144 194C141.944 197.334 139.684 200.455 138 204C142.525 204 147.346 204.983 149 200C151.836 200.811 153.032 201.784 155 204C155.943 200.563 153.958 197.361 153 194C147.593 197.541 147.562 202.754 140 203C142.424 200.15 144.393 197.38 146 194L144 194M160 194C156.586 200.439 159.815 205.041 167 203C160.694 201.72 160.472 200.018 160 194M169 194L169 204L171 204L171 194L169 194M175 194C172.936 198.514 173.464 201.618 178 204C175.999 200.202 175.638 198.091 177 194L175 194M203 194L203 204C204.346 200.793 204.346 197.207 203 194M208 194C209.329 198.178 212.623 201.285 216 204C214.715 199.422 211.827 196.705 208 194M221 194L221 204L223 204L223 194L221 194M227 194L227 204L233 204C231.494 203.317 230.685 203.174 229 203C229.674 200.703 229.965 200.226 232 199C230.752 198.315 230.452 198.251 229 198L229 194L227 194z"/>
<path style="fill:#110e0b; stroke:none;" d="M237 194L237 198C238.797 198 238.521 197.986 240 197L240 195L239 194L237 194z"/>
<path style="fill:#fff; stroke:none;" d="M277 194L277 204C278.346 200.793 278.346 197.207 277 194M289 194C290.362 198.091 290.001 200.202 288 204C292.207 201.68 293.354 196.823 289 194M295 194L295 204C295.985 201.668 295.981 199.543 296 197C298.548 199.573 300.859 202.203 304 204L304 194C303.016 196.331 303.019 198.457 303 201C300.436 198.455 297.952 196.076 295 194M309 194L307 200L312 200C312.674 202.297 312.965 202.774 315 204L311 194L309 194M316 194L316 204L322 204C320.494 203.317 319.685 203.174 318 203L318 194L316 194z"/>
<path style="fill:#110e0b; stroke:none;" d="M151 196L150 199L153 199C152.309 197.612 152.015 197.139 151 196M309 196L308 199L311 199C310.309 197.612 310.015 197.139 309 196z"/>
<path style="fill:#fff; stroke:none;" d="M108 199L108 204L110 204L110 199L108 199M207 201L207 204L209 204L209 201L207 201M306 201L305 204C306.289 202.557 306.401 202.766 306 201M255.333 202.667C255.278 202.722 255.222 203.778 255.667 203.333C255.722 203.278 255.778 202.222 255.333 202.667M60 242L60 276L66 276L66 263C69.8772 263 74.3943 263.522 77.9568 261.682C84.4505 258.328 85.6147 249.282 79.7863 244.703C74.579 240.612 66.1779 242 60 242M215 242L215 276L220 276L220 252L230 267C234.429 263.342 237.705 258.251 240 253C242.115 260.155 241 268.567 241 276L247 276L247 242C239.234 242.257 234.594 250.257 232 257L230 257C226.859 250.36 223.034 242.266 215 242M160 253L156 253L156 258L160 258C160 262.856 158.417 271.905 163.279 274.972C165.702 276.501 169.269 275.998 172 276L172 271C164.427 271.245 166 263.633 166 258L172 258L172 253L166 253L166 246C161.11 246.381 160.155 248.276 160 253M310 246L310 253L306 253L306 258L310 258C310 262.419 308.842 268.904 311.179 272.852C314.234 278.012 321.096 276.418 322 271C314.427 271.245 316 263.633 316 258L322 258L322 253L316 253L316 246L310 246M328 253L324 253L324 258L328 258C328 262.856 326.417 271.905 331.279 274.972C333.702 276.501 337.269 275.998 340 276L340 271C332.427 271.245 334 263.633 334 258L340 258L340 253L334 253L334 246C329.11 246.381 328.155 248.276 328 253z"/>
<path style="fill:#110e0b; stroke:none;" d="M66 247L66 258C68.5275 257.998 71.5473 258.368 73.9414 257.397C77.546 255.934 78.7399 251.484 75.5656 248.858C72.9989 246.735 69.113 247.026 66 247z"/>
<path style="fill:#fff; stroke:none;" d="M134 270C127.843 271.403 123.228 272.543 120 266L135 266C134.964 261.963 134.94 257.712 131.606 254.854C124.268 248.565 114.312 255.45 114.059 264C113.899 269.421 116.907 273.975 122.001 275.987C127.54 278.175 133.515 276.078 134 270M184 252.667C168.441 257.146 175.322 280.252 190.996 275.486C204.99 271.231 197.908 248.664 184 252.667M263 252.512C246.709 254.73 250.576 278.742 267 275.772C281.218 273.2 277.012 250.603 263 252.512M288 255C285.618 253.322 283.913 253.084 281 253L281 276L287 276C287 271.753 286.018 266.047 287.603 262.045C288.513 259.749 291.099 257.269 293.683 258.832C297.869 261.364 296 271.844 296 276L302 276C302 270.293 303.374 262.448 301.106 257.105C298.656 251.332 292.189 251.673 288 255M88 253C88 258.458 86.7141 265.842 88.7423 270.985C91.1612 277.118 97.3431 277.699 102 274C104.382 275.678 106.087 275.916 109 276L109 253L103 253C103 257.221 104.002 262.973 102.397 266.941C101.338 269.558 98.0838 271.695 95.6034 269.377C92.2984 266.289 94 257.143 94 253L88 253M141 253L141 276L146 276C146 268.234 144.547 259.914 154 258L154 253C150.622 253.241 148.747 254.015 146 256C145.346 252.946 143.993 253.064 141 253z"/>
<path style="fill:#110e0b; stroke:none;" d="M120 262L130 262C127.857 256.398 121.892 256.009 120 262M185.044 257.851C177.395 260.061 180.089 273.391 187.981 271.149C195.807 268.926 193.021 255.546 185.044 257.851M262.059 258.072C254.151 261.867 259.974 274.676 267.772 269.971C274.017 266.203 268.918 254.779 262.059 258.072z"/>
<path style="fill:#fff; stroke:none;" d="M183 289L183 318L188 318C188 315.237 186.827 302.272 192.701 304.346C196.502 305.688 195 314.903 195 318L200 318C200 311.441 202.214 298.412 192.044 299.424C190.541 299.573 189.323 300.367 188 301L188 289L183 289M214 289L214 318L219 318L219 289L214 289M179 312C176.145 312.755 172.999 314.181 170.001 313.523C161.683 311.698 160.336 301.178 167.055 296.603C170.877 294.001 175.088 295.574 179 297C178.433 289.722 170.874 288.671 165.015 291.688C159.743 294.403 157.919 299.352 158.019 305C158.115 310.352 160.772 315.25 166.001 317.258C171.572 319.397 178.476 318.577 179 312M206.302 291.341C203.872 292.294 205.287 296.122 207.772 295.249C210.306 294.359 208.75 290.381 206.302 291.341M205 299L205 318L209 318L209 299L205 299M239 313C233.591 314.666 230.793 314.41 227 310L240 310C239.917 306.561 239.788 303.015 236.772 300.742C231.005 296.397 223.6 301.57 223.127 308C222.447 317.265 237.337 322.962 239 313z"/>
<path style="fill:#110e0b; stroke:none;" d="M228 307L236 307C233.751 302.924 229.638 302.069 228 307z"/>
</svg>
